<?xml version="1.0" encoding="UTF-8"?>
<svg version="1.1" xmlns="http://www.w3.org/2000/svg" width="378" height="381">
<path d="M0 0 C2.87787437 2.46869332 5.63334549 5.05724408 8.38720703 7.66210938 C9.75702225 8.85558644 11.1318492 10.04334162 12.51220703 11.22460938 C46.11382009 40.73500807 67.83276054 86.27612403 71.14501953 130.72070312 C73.77198128 177.34448046 62.5354434 224.36951284 33.38720703 261.66210938 C32.66017578 262.59925781 31.93314453 263.53640625 31.18408203 264.50195312 C20.2422629 278.2185861 8.00968297 291.80783211 -6.61279297 301.66210938 C-7.27279297 302.32210938 -7.93279297 302.98210937 -8.61279297 303.66210938 C-36.17819968 322.54951768 -66.2683873 334.38579693 -99.61279297 337.66210938 C-100.38236328 337.7471875 -101.15193359 337.83226562 -101.94482422 337.91992188 C-130.94634274 340.98311463 -160.79991394 335.68278755 -187.61279297 324.66210938 C-188.43650391 324.324375 -189.26021484 323.98664063 -190.10888672 323.63867188 C-192.3038204 322.69625998 -194.45694992 321.69078575 -196.61279297 320.66210938 C-197.63244141 320.19546875 -198.65208984 319.72882813 -199.70263672 319.24804688 C-209.36902675 314.65950177 -217.98199784 308.96484694 -226.61279297 302.66210938 C-227.2636084 302.18708984 -227.91442383 301.71207031 -228.58496094 301.22265625 C-230.43692064 299.86027355 -232.2777292 298.48464499 -234.11279297 297.09960938 C-234.6710376 296.68219482 -235.22928223 296.26478027 -235.80444336 295.8347168 C-237.11329062 294.8263499 -238.3693584 293.75011462 -239.61279297 292.66210938 C-239.61279297 292.00210937 -239.61279297 291.34210938 -239.61279297 290.66210938 C-240.14388672 290.45585937 -240.67498047 290.24960937 -241.22216797 290.03710938 C-244.62052733 288.08249746 -247.12335225 285.44087221 -249.86279297 282.66210938 C-250.41708984 282.11554688 -250.97138672 281.56898438 -251.54248047 281.00585938 C-255.61279297 276.91549607 -255.61279297 276.91549607 -255.61279297 274.66210938 C-256.27279297 274.66210938 -256.93279297 274.66210938 -257.61279297 274.66210938 C-259.55810547 272.54492188 -259.55810547 272.54492188 -261.73779297 269.78710938 C-262.46224609 268.8821875 -263.18669922 267.97726562 -263.93310547 267.04492188 C-265.61279297 264.66210938 -265.61279297 264.66210938 -265.61279297 262.66210938 C-266.27279297 262.66210938 -266.93279297 262.66210938 -267.61279297 262.66210938 C-268.75439453 261.18432617 -268.75439453 261.18432617 -270.00341797 259.11132812 C-270.46264648 258.3556958 -270.921875 257.60006348 -271.39501953 256.8215332 C-271.87938477 256.00579834 -272.36375 255.19006348 -272.86279297 254.34960938 C-273.36004883 253.52162842 -273.85730469 252.69364746 -274.36962891 251.84057617 C-301.25769383 206.84395345 -312.62577994 154.85670369 -299.86865234 103.14111328 C-298.86334109 99.2902732 -297.75092816 95.47543091 -296.61279297 91.66210938 C-296.25572266 90.41558594 -295.89865234 89.1690625 -295.53076172 87.88476562 C-288.70609129 65.67444244 -276.9165298 45.09289989 -261.61279297 27.66210938 C-260.91927734 26.85902344 -260.22576172 26.0559375 -259.51123047 25.22851562 C-240.62443761 3.76625102 -219.52376593 -12.22329931 -193.61279297 -24.33789062 C-192.67951172 -24.78648438 -191.74623047 -25.23507813 -190.78466797 -25.69726562 C-174.42829161 -33.06241755 -156.38343827 -37.30082124 -138.61279297 -39.33789062 C-137.81768311 -39.43070313 -137.02257324 -39.52351563 -136.20336914 -39.61914062 C-87.52437545 -44.92526938 -37.78400572 -31.34368019 0 0 Z " fill="#051628" transform="translate(305.61279296875,41.337890625)"/>
<path d="M0 0 C-2.01105789 2.01105789 -3.69022973 2.99294411 -6.1875 4.3125 C-10.38358911 6.59386884 -14.17145492 9.14895579 -18 12 C-17.03320312 11.84144531 -16.06640625 11.68289062 -15.0703125 11.51953125 C0.25017892 9.35776767 15.06060981 11.56856206 30 15 C31.60294922 15.3403125 31.60294922 15.3403125 33.23828125 15.6875 C49.03656018 19.43227723 65.62353896 28.99136297 79 38 C79 38.33 79 38.66 79 39 C66.40004476 38.72068685 54.01077887 38.30061928 41.58544922 36.09326172 C34.40434809 34.82877369 27.2826204 34.31568908 20 34 C20.99257812 34.47308594 21.98515625 34.94617188 23.0078125 35.43359375 C47.92735193 47.48725125 70.14435777 64.27628375 85 88 C85.33 88.99 85.66 89.98 86 91 C81.72813475 89.47146065 78.00673137 87.28490519 74.1875 84.875 C73.59001953 84.50246094 72.99253906 84.12992187 72.37695312 83.74609375 C70.91573749 82.8342952 69.45755415 81.91764024 68 81 C67.67 81.33 67.34 81.66 67 82 C67.4846875 82.46148437 67.969375 82.92296875 68.46875 83.3984375 C90.41928441 104.75799599 105.87076015 135.27811066 108 166 C105.8346835 163.3184159 103.70901726 160.61664938 101.625 157.87109375 C89.02263205 141.30171536 74.22218534 128.62695923 57 117 C57.79664063 118.34191406 57.79664063 118.34191406 58.609375 119.7109375 C59.32327501 120.93208225 60.03679607 122.15344858 60.75 123.375 C61.09804688 123.95894531 61.44609375 124.54289062 61.8046875 125.14453125 C66.71735577 133.60523772 69.61245759 142.44008614 71.8125 151.9375 C72.04130859 152.86884766 72.27011719 153.80019531 72.50585938 154.75976562 C72.71662109 155.65244141 72.92738281 156.54511719 73.14453125 157.46484375 C73.33378174 158.265271 73.52303223 159.06569824 73.71801758 159.89038086 C74 162 74 162 73 165 C72.49210938 164.35933594 71.98421875 163.71867188 71.4609375 163.05859375 C70.02295798 161.25169439 68.57854834 159.44989994 67.12890625 157.65234375 C65.93054011 156.15933346 64.7420921 154.65778979 63.58984375 153.12890625 C54.51778759 141.5599539 40.72665346 134.71327399 28 128 C28.56847656 128.68964844 29.13695312 129.37929687 29.72265625 130.08984375 C41.77640789 145.49300837 48.68961698 161.19266778 48 181 C45.29852118 177.73595726 42.98598198 174.44570321 40.8125 170.8125 C31.1503543 155.61750455 17.34818553 145.21512099 1 138 C1.6290625 138.57105469 2.258125 139.14210937 2.90625 139.73046875 C15.82217999 151.96558918 24.63771918 167.99270021 25.30078125 186.05078125 C25.31955267 187.8045914 25.32311884 189.55862155 25.3125 191.3125 C25.30976074 192.22878174 25.30702148 193.14506348 25.30419922 194.08911133 C25.04483615 210.95516385 25.04483615 210.95516385 20 216 C19.7666394 215.16976318 19.7666394 215.16976318 19.52856445 214.32275391 C15.42611478 199.70584088 15.42611478 199.70584088 9 186 C8.79246094 187.1859375 8.58492187 188.371875 8.37109375 189.59375 C2.22166398 222.67486354 -18.16363103 246.00723116 -43.24609375 267.4765625 C-49.96941627 273.31641948 -55.43355095 280.07702135 -61 287 C-62.52034511 288.83373823 -64.04117319 290.66707614 -65.5625 292.5 C-69.40347008 297.16981099 -72.93003239 302.01004679 -76.37109375 306.98046875 C-76.90863281 307.64691406 -77.44617188 308.31335938 -78 309 C-78.66 309 -79.32 309 -80 309 C-85.73835883 299.05351136 -84.64828818 281.5145665 -81.80078125 270.76953125 C-79.53611401 263.49501219 -76.47830518 256.76757204 -73 250 C-96.45019126 265.27676013 -96.45019126 265.27676013 -116.21484375 284.82421875 C-117.09849609 285.90123047 -117.09849609 285.90123047 -118 287 C-118.66 287 -119.32 287 -120 287 C-121.16497545 266.13399532 -111.01487293 254.94940428 -97.98388672 239.75268555 C-92.42573245 233.22845695 -87.33495297 226.40113921 -83 219 C-84.64548828 219.74056641 -84.64548828 219.74056641 -86.32421875 220.49609375 C-87.77852726 221.1434956 -89.23296097 221.79061624 -90.6875 222.4375 C-91.40873047 222.76298828 -92.12996094 223.08847656 -92.87304688 223.42382812 C-96.56546832 225.0592842 -99.96466087 226.43489334 -104 227 C-103.34 226.360625 -102.68 225.72125 -102 225.0625 C-100.99520631 224.04638469 -99.99589851 223.02483503 -99 222 C-98.39542969 221.37996094 -97.79085937 220.75992188 -97.16796875 220.12109375 C-85.68174777 207.81928311 -76.74852285 191.8844211 -76.9375 174.6875 C-76.94652344 173.61886719 -76.95554688 172.55023438 -76.96484375 171.44921875 C-76.97644531 170.64097656 -76.98804688 169.83273438 -77 169 C-74 170 -74 170 -72.8671875 171.7421875 C-72.37605469 172.79792969 -72.37605469 172.79792969 -71.875 173.875 C-71.54242188 174.57367188 -71.20984375 175.27234375 -70.8671875 175.9921875 C-67.5557146 183.65929142 -67.78027177 194.35011903 -69.89453125 202.41015625 C-70.8232502 204.69093248 -71.79285133 206.8551555 -73 209 C-65.98234137 204.29037132 -61.8429574 199.50115723 -58 192 C-57.6596875 191.34902344 -57.319375 190.69804687 -56.96875 190.02734375 C-56.28919202 188.6965427 -55.63967481 187.3504246 -55 186 C-47.15156129 193.26707288 -46.933058 203.99418065 -46 214 C-45.37609375 212.91976562 -44.7521875 211.83953125 -44.109375 210.7265625 C-43.75842773 210.11893066 -43.40748047 209.51129883 -43.04589844 208.88525391 C-38.15969774 200.0777745 -37.5257555 190.72208595 -40.0625 180.9375 C-43.74958244 170.35643085 -50.2550917 161.93809196 -58 154 C-53.11556934 152.37185645 -49.48325482 154.83546559 -45 157 C-37.62103647 160.99840967 -31.16893861 165.21771386 -25.48828125 171.43359375 C-24.06539815 173.1091257 -24.06539815 173.1091257 -22 174 C-22.40109985 173.08504761 -22.40109985 173.08504761 -22.81030273 172.15161133 C-24.0244855 169.37411218 -25.23105373 166.59336781 -26.4375 163.8125 C-27.06881836 162.37293945 -27.06881836 162.37293945 -27.71289062 160.90429688 C-28.11572266 159.97294922 -28.51855469 159.04160156 -28.93359375 158.08203125 C-29.30540771 157.22843018 -29.67722168 156.3748291 -30.06030273 155.49536133 C-30.99870102 153.00344942 -31.5546206 150.62096539 -32 148 C-21.13370291 151.20644832 -12.16202431 156.09523147 -4 164 C-7.34364155 151.51707155 -14.59421127 139.73017345 -23 130 C-22.67 129.34 -22.34 128.68 -22 128 C-20.35 128.99 -18.7 129.98 -17 131 C-19.61976982 123.83929581 -25.11758496 120.11508955 -31.66015625 116.55078125 C-41.80058071 111.90599261 -52.93781003 110.26067468 -64 109.5625 C-75.13900813 108.62729092 -83.33698646 101.45721066 -92 95 C-91.01 94.67 -90.02 94.34 -89 94 C-87.046875 95.0390625 -87.046875 95.0390625 -84.75 96.625 C-76.894698 101.56921949 -67.38566058 105.48943629 -58 105 C-61.63 103.68 -65.26 102.36 -69 101 C-69 100.67 -69 100.34 -69 100 C-68.04480469 99.92523438 -67.08960938 99.85046875 -66.10546875 99.7734375 C-56.3109689 98.77738667 -47.50552308 97.28669082 -40.76953125 89.3828125 C-39.06008472 86.97389184 -37.47958991 84.55519622 -36 82 C-34.82440939 85.52677184 -35.45750657 86.86728487 -36.9765625 90.15625 C-39.25782879 94.26601216 -42.0695678 97.37971186 -46 100 C-35.05399188 100.94362139 -24.67850308 97.13047222 -16.2578125 90.13671875 C-15.63519531 89.57404297 -15.63519531 89.57404297 -15 89 C-18.04200046 89 -20.99532806 89.55486342 -24 90 C-13.87222164 77.79472864 -2.58003339 66.67401002 13 62 C9.37 61.01 5.74 60.02 2 59 C3 57 3 57 6.7109375 55.7109375 C8.26327626 55.25750522 9.81811192 54.81255678 11.375 54.375 C12.15617188 54.14554688 12.93734375 53.91609375 13.7421875 53.6796875 C16.9726758 52.75036895 19.61562918 52 23 52 C23 51.34 23 50.68 23 50 C21.75283203 49.81630859 21.75283203 49.81630859 20.48046875 49.62890625 C17.39033571 49.07053204 14.42098282 48.31715555 11.39501953 47.48803711 C-10.65854341 41.65793342 -31.94415758 45.41285982 -51.66064453 56.61572266 C-57.60494301 60.13316916 -63.42627072 63.85286351 -69.26049805 67.54882812 C-91.0998323 81.33585538 -91.0998323 81.33585538 -100 81 C-101.9375 80.0625 -101.9375 80.0625 -103 78 C-104.15557096 72.57770549 -104.21319962 69.20752853 -102 64 C-106.33448856 67.5203968 -109.92083223 70.68338037 -112.8125 75.5 C-114.21484375 77.53125 -114.21484375 77.53125 -116 79 C-119.8282677 79.3822958 -123.26424527 78.85084805 -127 78 C-128.83277346 73.60432381 -129.77648825 70.81422715 -129 66 C-114.68006897 37.98905382 -77.9022654 15.59702537 -49 6 C-43.72385642 4.37379987 -38.40417515 3.12024047 -33 2 C-31.948125 1.77441406 -30.89625 1.54882812 -29.8125 1.31640625 C-19.93892299 -0.50970174 -9.99802329 -0.17942614 0 0 Z " fill="#331023" transform="translate(206,49)"/>
<path d="M0 0 C-2.01105789 2.01105789 -3.69022973 2.99294411 -6.1875 4.3125 C-10.38358911 6.59386884 -14.17145492 9.14895579 -18 12 C-17.03320312 11.84144531 -16.06640625 11.68289062 -15.0703125 11.51953125 C0.25017892 9.35776767 15.06060981 11.56856206 30 15 C31.60294922 15.3403125 31.60294922 15.3403125 33.23828125 15.6875 C49.03656018 19.43227723 65.62353896 28.99136297 79 38 C79 38.33 79 38.66 79 39 C66.40004476 38.72068685 54.01077887 38.30061928 41.58544922 36.09326172 C34.40434809 34.82877369 27.2826204 34.31568908 20 34 C20.99257812 34.47308594 21.98515625 34.94617188 23.0078125 35.43359375 C47.92735193 47.48725125 70.14435777 64.27628375 85 88 C85.33 88.99 85.66 89.98 86 91 C81.08655635 89.32010721 76.9807152 86.57240122 72.625 83.8125 C58.63230892 74.92199328 58.63230892 74.92199328 43 70 C44.21623047 71.05574219 44.21623047 71.05574219 45.45703125 72.1328125 C58.41500899 83.59238254 68.3522595 95.90446784 75 112 C75 112.99 75 113.98 75 115 C71.65265689 113.76002768 68.85387044 112.36351196 65.9375 110.3125 C55.73701465 103.40574633 45.48938392 98.29388074 34 94 C33.09894531 93.65710938 32.19789063 93.31421875 31.26953125 92.9609375 C29.51685081 92.29709039 27.75924386 91.64625285 26 91 C26.53367188 91.38929688 27.06734375 91.77859375 27.6171875 92.1796875 C36.42086464 98.79006099 43.97623206 105.94391982 50 115.1875 C50.37382812 115.75734619 50.74765625 116.32719238 51.1328125 116.91430664 C53.6021085 120.87375419 54.90651003 124.51783016 56 129 C55.360625 128.34 54.72125 127.68 54.0625 127 C53.04636888 125.9952223 52.02480108 124.99593345 51 124 C50.36835938 123.38382812 49.73671875 122.76765625 49.0859375 122.1328125 C35.919857 109.82851181 20.25785454 103.79736582 2.3125 103.8125 C1.52246582 103.81185547 0.73243164 103.81121094 -0.08154297 103.81054688 C-6.21094678 103.86562014 -12.03585174 104.52866827 -18 106 C-16.90042969 106.47308594 -15.80085938 106.94617188 -14.66796875 107.43359375 C-5.26214117 111.59929029 2.4187311 115.92633226 10 123 C9.67 123.66 9.34 124.32 9 125 C8.31421875 124.74347656 7.6284375 124.48695313 6.921875 124.22265625 C-13.30811186 116.8232645 -33.71268855 110.51416526 -54.69091797 105.65112305 C-55.34998138 105.49486954 -56.0090448 105.33861603 -56.68807983 105.17762756 C-58.47449931 104.7547887 -60.2635378 104.34305816 -62.05273438 103.93212891 C-64.95034008 103.0157059 -66.72501778 101.97984564 -69 100 C-68.04480469 99.92523438 -67.08960938 99.85046875 -66.10546875 99.7734375 C-56.3109689 98.77738667 -47.50552308 97.28669082 -40.76953125 89.3828125 C-39.06008472 86.97389184 -37.47958991 84.55519622 -36 82 C-34.82440939 85.52677184 -35.45750657 86.86728487 -36.9765625 90.15625 C-39.25782879 94.26601216 -42.0695678 97.37971186 -46 100 C-35.05399188 100.94362139 -24.67850308 97.13047222 -16.2578125 90.13671875 C-15.63519531 89.57404297 -15.63519531 89.57404297 -15 89 C-18.04200046 89 -20.99532806 89.55486342 -24 90 C-13.87222164 77.79472864 -2.58003339 66.67401002 13 62 C9.37 61.01 5.74 60.02 2 59 C3 57 3 57 6.7109375 55.7109375 C8.26327626 55.25750522 9.81811192 54.81255678 11.375 54.375 C12.15617188 54.14554688 12.93734375 53.91609375 13.7421875 53.6796875 C16.9726758 52.75036895 19.61562918 52 23 52 C23 51.34 23 50.68 23 50 C21.75283203 49.81630859 21.75283203 49.81630859 20.48046875 49.62890625 C17.39033571 49.07053204 14.42098282 48.31715555 11.39501953 47.48803711 C-10.65854341 41.65793342 -31.94415758 45.41285982 -51.66064453 56.61572266 C-57.60494301 60.13316916 -63.42627072 63.85286351 -69.26049805 67.54882812 C-91.0998323 81.33585538 -91.0998323 81.33585538 -100 81 C-101.9375 80.0625 -101.9375 80.0625 -103 78 C-104.15557096 72.57770549 -104.21319962 69.20752853 -102 64 C-106.33448856 67.5203968 -109.92083223 70.68338037 -112.8125 75.5 C-114.21484375 77.53125 -114.21484375 77.53125 -116 79 C-119.8282677 79.3822958 -123.26424527 78.85084805 -127 78 C-128.83277346 73.60432381 -129.77648825 70.81422715 -129 66 C-114.68006897 37.98905382 -77.9022654 15.59702537 -49 6 C-43.72385642 4.37379987 -38.40417515 3.12024047 -33 2 C-31.948125 1.77441406 -30.89625 1.54882812 -29.8125 1.31640625 C-19.93892299 -0.50970174 -9.99802329 -0.17942614 0 0 Z " fill="#681A2C" transform="translate(206,49)"/>
<path d="M0 0 C1.17046875 0.59167969 2.3409375 1.18335937 3.546875 1.79296875 C41.94200789 22.53872604 71.63441461 58.20281461 84.28930664 99.98706055 C89.45647331 117.65690579 91.17407319 133.60180315 91 152 C89.1234656 149.1851984 88.3556234 146.93776391 87.50512695 143.70874023 C79.61394214 113.87157651 61.04179737 82.94813137 35.3984375 65.05859375 C34.70621094 64.53458984 34.70621094 64.53458984 34 64 C34 63.67 34 63.34 34 63 C39.94 63.33 45.88 63.66 52 64 C37.26805389 43.57616562 14.93919371 29.65102655 -8 20 C-8.76957031 19.65453125 -9.53914062 19.3090625 -10.33203125 18.953125 C-17.95377137 15.66680256 -25.94296379 13.8793087 -34 12 C-30.31265242 9.54176828 -27.30300029 8.98757384 -23 8 C-25.74624944 7.02965853 -28.49630148 6.07379036 -31.25 5.125 C-32.38695312 4.72087891 -32.38695312 4.72087891 -33.546875 4.30859375 C-65.80897936 -6.7142919 -104.90108197 0.7546202 -134.97949219 15.26049805 C-148.02457293 21.86331165 -159.99871355 30.4031331 -171 40 C-172.19689453 41.01513672 -172.19689453 41.01513672 -173.41796875 42.05078125 C-183.35942594 50.62674516 -198.69883268 64.67219042 -200.265625 78.3125 C-200.34546279 82.35761459 -199.85197532 86.04489508 -199 90 C-199.88300781 90.61746094 -200.76601562 91.23492187 -201.67578125 91.87109375 C-218.69516053 103.84804702 -234.89627843 115.6158711 -242.17578125 135.90625 C-243 138 -243 138 -245 141 C-245.39639606 133.44016079 -243.92942129 126.440769 -242.375 119.0625 C-242.23928589 118.41627686 -242.10357178 117.77005371 -241.96374512 117.10424805 C-239.76000706 106.69652693 -237.21463357 96.77028691 -233 87 C-232.65485352 86.19191895 -232.30970703 85.38383789 -231.95410156 84.55126953 C-213.79633187 42.75399175 -180.41322015 10.07012973 -138 -7 C-93.6505308 -24.20334971 -42.29673186 -21.54157676 0 0 Z " fill="#B54930" transform="translate(266,39)"/>
<path d="M0 0 C4.77142253 2.12167998 7.89550739 5.22004331 11.4609375 8.9609375 C24.42893787 21.73823198 35.8126216 26.43825785 53.72167969 28.10742188 C73.59228441 30.05712816 73.59228441 30.05712816 79.8515625 36.31640625 C79.828125 38.48046875 79.828125 38.48046875 79.4765625 40.94140625 C79.36570313 41.75867188 79.25484375 42.5759375 79.140625 43.41796875 C78.99753906 44.35769531 78.99753906 44.35769531 78.8515625 45.31640625 C78.17915527 45.35604492 77.50674805 45.39568359 76.81396484 45.43652344 C45.9794944 47.33129144 18.24170287 53.4657662 -10.22338867 65.57958984 C-12.17770936 66.32761011 -14.109973 66.85129901 -16.1484375 67.31640625 C2.42881484 46.26218693 40.77304086 40.78112413 66.8515625 37.31640625 C56.32015149 31.07278401 39.34490063 36.66168477 28.33203125 39.38720703 C8.07384835 44.79564166 -14.3220652 50.94315396 -30.1484375 65.31640625 C-30.86644531 65.95449219 -31.58445312 66.59257812 -32.32421875 67.25 C-39.23338442 73.72971113 -42.92900245 80.50898069 -43.7109375 90.00390625 C-43.79472656 90.99777344 -43.87851562 91.99164063 -43.96484375 93.015625 C-44.02542969 93.77488281 -44.08601563 94.53414063 -44.1484375 95.31640625 C-52.81035357 88.89797101 -58.14865718 78.83289803 -60.1484375 68.31640625 C-62.00822295 51.53279143 -58.18280978 37.81948653 -47.7890625 24.4921875 C-37.39696287 11.75772966 -17.3045952 -5.50600756 0 0 Z " fill="#BF492A" transform="translate(92.1484375,136.68359375)"/>
<path d="M0 0 C0.66 0 1.32 0 2 0 C11.44473423 20.11208779 15.16171131 42.95311473 8.2890625 64.609375 C6.05001328 70.49875294 3.64434774 76.2793944 1 82 C0.67 82 0.34 82 0 82 C-0.02505615 81.36497559 -0.0501123 80.72995117 -0.07592773 80.07568359 C-0.19256789 77.17528458 -0.31498393 74.27515651 -0.4375 71.375 C-0.47681641 70.37597656 -0.51613281 69.37695312 -0.55664062 68.34765625 C-0.76572614 63.49043896 -1.02958555 58.77867956 -2 54 C-2.23074219 54.51796143 -2.46148437 55.03592285 -2.69921875 55.56958008 C-7.2921587 65.79363687 -11.88010427 75.25552489 -19 84 C-19.6703125 84.87011719 -20.340625 85.74023438 -21.03125 86.63671875 C-27.34158357 94.75520559 -34.19408933 101.33311409 -42.2109375 107.76171875 C-43.90047255 109.11760612 -45.57666954 110.49067496 -47.2265625 111.89453125 C-59.89315202 122.52461963 -74.52886609 131.06962695 -89 139 C-87.0125818 130.38785447 -83.13655151 122.93005071 -79.10253906 115.14501953 C-77.98408951 112.96904571 -76.89047578 110.78228219 -75.8046875 108.58984375 C-75.44979248 107.87328613 -75.09489746 107.15672852 -74.72924805 106.41845703 C-74.05295022 105.05127985 -73.37729397 103.68378504 -72.70239258 102.31591797 C-70.94252304 98.77973578 -69.08495246 95.35516964 -67 92 C-85.63846038 101.30178312 -103.24656027 111.25911425 -119 125 C-119 113.81231951 -104.00302752 100.60962943 -96.41821289 92.96850586 C-90.17055215 86.92183748 -83.0577499 82.1808268 -75.88867188 77.30761719 C-71.73823053 74.43406964 -67.84792233 71.26207949 -64 68 C-62.75863281 66.95972656 -62.75863281 66.95972656 -61.4921875 65.8984375 C-48.15950995 54.35975937 -37.20409645 39.11442626 -30 23 C-29.67 23 -29.34 23 -29 23 C-28.22647006 44.83073382 -36.03888508 64.05832762 -48 82 C-24.58610035 68.15642055 -11.2427681 49.01284162 -2.90625 23.67578125 C-1.75102441 18.9901464 -1.29655071 14.36195853 -0.875 9.5625 C-0.74544922 8.17901367 -0.74544922 8.17901367 -0.61328125 6.76757812 C-0.4029346 4.51219459 -0.19865598 2.25643814 0 0 Z " fill="#310F23" transform="translate(291,220)"/>
<path d="M0 0 C3.82563186 3.81620912 5.03242099 7.23038022 5.0859375 12.58203125 C4.60457314 29.66083862 -6.40122644 42.46173375 -18.21875 53.74609375 C-24.83668168 59.79712626 -32.33456824 64.71110937 -40.4140625 68.58203125 C-35.89474307 70.73753832 -31.5153935 71.20452716 -26.6015625 71.70703125 C-25.41916992 71.83658203 -25.41916992 71.83658203 -24.21289062 71.96875 C-22.28063166 72.17954189 -20.34742987 72.38166021 -18.4140625 72.58203125 C-21.607728 79.85649155 -28.74408247 84.95992244 -34.6484375 90.0390625 C-36.66347889 91.79999469 -38.56100648 93.65176456 -40.4140625 95.58203125 C-44.60623851 94.00007804 -47.09623555 90.9114774 -49.9140625 87.58203125 C-50.43452148 86.96900146 -50.95498047 86.35597168 -51.49121094 85.72436523 C-65.17995303 69.23415835 -75.55334513 50.83997263 -82.4140625 30.58203125 C-82.8059375 29.43476563 -83.1978125 28.2875 -83.6015625 27.10546875 C-85.90545044 20.00746106 -87.40199528 12.97278532 -88.4140625 5.58203125 C-85.49272455 7.04270022 -85.12246937 9.13214789 -83.7890625 12.08203125 C-76.75144314 26.46473878 -65.18264141 33.48785492 -51.4140625 40.58203125 C-51.9090625 39.03515625 -51.9090625 39.03515625 -52.4140625 37.45703125 C-54.25112619 30.04269507 -54.26839288 22.11326348 -52.4765625 14.70703125 C-45.36460718 3.93134138 -35.02136324 -0.30327386 -22.82421875 -2.87109375 C-14.54306582 -4.19911369 -7.14829464 -4.91640352 0 0 Z " fill="#B74A31" transform="translate(111.4140625,213.41796875)"/>
<path d="M0 0 C0.66 0 1.32 0 2 0 C6.59340062 13.72485967 5.07597175 28.99228584 -1 42 C-1.99 43.32 -2.98 44.64 -4 46 C-4 41.05 -4 36.1 -4 31 C-4.928125 32.85625 -5.85625 34.7125 -6.8125 36.625 C-12.23839528 46.9691897 -19.63555981 55.96239546 -28.04296875 64.02734375 C-32.03987377 68.05616019 -35.49261076 72.54693244 -39 77 C-39.75539062 77.9384375 -40.51078125 78.876875 -41.2890625 79.84375 C-49.57042088 90.43022875 -56.34423468 101.69350917 -59 115 C-59.99 114.505 -59.99 114.505 -61 114 C-65.8287647 94.68494119 -60.80462454 76.13073687 -52 59 C-75.45019126 74.27676013 -75.45019126 74.27676013 -95.21484375 93.82421875 C-95.80394531 94.54222656 -96.39304687 95.26023437 -97 96 C-97.66 96 -98.32 96 -99 96 C-100.17671419 74.92374139 -89.71575979 63.45833593 -76.49169922 48.13745117 C-73.97960643 45.25324197 -73.97960643 45.25324197 -72 42 C-70.741875 41.7525 -69.48375 41.505 -68.1875 41.25 C-56.90712222 38.88273471 -48.73131903 33.26682543 -42 24 C-39.99917139 20.80470309 -38.11415726 17.58481682 -36.3125 14.2734375 C-35.879375 13.52320313 -35.44625 12.77296875 -35 12 C-34.67 12 -34.34 12 -34 12 C-33.58722095 34.80127986 -33.58722095 34.80127986 -36 44 C-20.20012936 34.18857441 -5.55245449 20.18949792 -0.33984375 1.65234375 C-0.22769531 1.10707031 -0.11554688 0.56179687 0 0 Z " fill="#681A2C" transform="translate(185,240)"/>
<path d="M0 0 C-2.73390645 2.73390645 -4.8077805 2.59871563 -8.625 3.1875 C-38.34153298 8.30213276 -69.51296422 19.73753006 -93 39 C-94.051875 39.78375 -95.10375 40.5675 -96.1875 41.375 C-105.17079737 49.75941088 -114.50084651 61.09584465 -118 73 C-117.28457031 72.12859375 -116.56914063 71.2571875 -115.83203125 70.359375 C-101.01600297 52.54944731 -84.02010475 36.20268063 -60 33 C-61 35 -61 35 -63.9375 36.5625 C-71.49108328 40.73480781 -83.05770635 49.66257328 -85.68359375 58.23046875 C-85.78800781 58.81441406 -85.89242187 59.39835937 -86 60 C-85.25878906 59.45472656 -84.51757812 58.90945312 -83.75390625 58.34765625 C-66.5932501 46.06003832 -49.16193074 36.7377995 -27.625 36.9375 C-26.23474609 36.94426758 -26.23474609 36.94426758 -24.81640625 36.95117188 C-22.54420291 36.96288426 -20.27213612 36.97928628 -18 37 C-21.23449306 38.71748539 -24.38068431 39.66476664 -27.93896484 40.54614258 C-46.38855576 45.16731098 -61.32135739 54.69909112 -76.19360352 66.33911133 C-91.44745959 78.18938591 -91.44745959 78.18938591 -99.1875 78.0625 C-100.445625 78.041875 -101.70375 78.02125 -103 78 C-103.93402724 72.58264203 -104.20808081 69.19548425 -102 64 C-106.33448856 67.5203968 -109.92083223 70.68338037 -112.8125 75.5 C-114.21484375 77.53125 -114.21484375 77.53125 -116 79 C-119.8282677 79.3822958 -123.26424527 78.85084805 -127 78 C-128.83277346 73.60432381 -129.77648825 70.81422715 -129 66 C-114.68006897 37.98905382 -77.9022654 15.59702537 -49 6 C-43.72385642 4.37379987 -38.40417515 3.12024047 -33 2 C-31.948125 1.77441406 -30.89625 1.54882812 -29.8125 1.31640625 C-19.93892299 -0.50970174 -9.99802329 -0.17942614 0 0 Z " fill="#A12933" transform="translate(206,49)"/>
<path d="M0 0 C6.59387734 4.19610376 11.83956501 10.10826006 13.75 17.75 C13.875 20.625 13.875 20.625 13.75 22.75 C11.26599398 23.99200301 9.92792364 23.73221651 7.1875 23.4375 C5.97900391 23.31955078 5.97900391 23.31955078 4.74609375 23.19921875 C3.75802734 22.97685547 3.75802734 22.97685547 2.75 22.75 C2.255 21.76 2.255 21.76 1.75 20.75 C4.06 20.75 6.37 20.75 8.75 20.75 C6.68429006 15.70048682 4.66084709 13.20542354 -0.25 10.75 C-4.70254066 10.29719926 -6.49543433 10.24695622 -10.25 12.75 C-10.91721536 15.66440699 -10.91721536 15.66440699 -10.25 18.75 C-7.83119071 21.01877535 -7.83119071 21.01877535 -5.25 22.75 C-5.25 23.41 -5.25 24.07 -5.25 24.75 C-6.37535156 24.97042969 -6.37535156 24.97042969 -7.5234375 25.1953125 C-20.80180331 28.10518108 -30.55823474 34.54652772 -38.3125 45.72265625 C-45.91083288 57.59505137 -47.05751722 70.05327498 -44.7265625 83.84765625 C-44.56929687 84.47542969 -44.41203125 85.10320312 -44.25 85.75 C-50.7003259 80.22114923 -54.40318929 70.77699625 -55.57055664 62.46850586 C-56.72794267 44.80645186 -51.61521366 31.14150316 -40.25 17.75 C-34.72567167 11.59900266 -28.0920787 7.08680101 -21.1875 2.625 C-20.44371094 2.12653564 -19.69992188 1.62807129 -18.93359375 1.11450195 C-12.25286236 -3.01758334 -7.22563526 -2.77909049 0 0 Z " fill="#DF7436" transform="translate(87.25,140.25)"/>
<path d="M0 0 C9.81036467 0.36427731 19.32907214 1.25486419 29.00830078 2.90673828 C36.32713888 4.12730087 43.58897625 4.67874486 51 5 C51 5.33 51 5.66 51 6 C50.39526855 6.01981934 49.79053711 6.03963867 49.16748047 6.06005859 C46.40291491 6.15586299 43.63904826 6.26531555 40.875 6.375 C39.92367187 6.4059375 38.97234375 6.436875 37.9921875 6.46875 C32.98289652 6.67747046 28.69633387 7.05505365 24 9 C25.2375 9.391875 26.475 9.78375 27.75 10.1875 C64.4956686 22.55052869 91.73258655 46.77396711 109.29296875 81.23046875 C110.97973422 84.739195 112.04635425 88.22943142 113 92 C112.13375 91.236875 111.2675 90.47375 110.375 89.6875 C100.25814937 81.02764003 89.68500375 72.39137833 78.12109375 65.75 C77.44103271 65.35635254 76.76097168 64.96270508 76.06030273 64.55712891 C74.71480764 63.78513137 73.36163637 63.02631988 72.00024414 62.28271484 C67.97939837 59.98463999 66.32214643 58.41857227 65 54 C60.52329812 46.62150244 54.90886828 40.25053753 49 34 C48.32453125 33.26007813 47.6490625 32.52015625 46.953125 31.7578125 C33.83263284 17.89744296 17.20949079 8.75574385 0 1 C0 0.67 0 0.34 0 0 Z " fill="#371124" transform="translate(224,82)"/>
<path d="M0 0 C0.66 0.33 1.32 0.66 2 1 C-5.88056526 16.97745975 -17.82640538 28.45747606 -31.5 39.5 C-45.80343877 50.97440843 -45.80343877 50.97440843 -56 66 C-56.37769531 66.7528125 -56.75539063 67.505625 -57.14453125 68.28125 C-57.42683594 68.8484375 -57.70914063 69.415625 -58 70 C-59.17671419 48.92374139 -48.71575979 37.45833593 -35.49169922 22.13745117 C-32.97960643 19.25324197 -32.97960643 19.25324197 -31 16 C-29.741875 15.7525 -28.48375 15.505 -27.1875 15.25 C-18.64731767 13.53104956 -11.08995639 8.90843135 -4 4 C-3.01 3.67 -2.02 3.34 -1 3 C-0.67 2.01 -0.34 1.02 0 0 Z " fill="#9E2832" transform="translate(144,266)"/>
<path d="M0 0 C6.26448713 5.95905978 8.2442424 15.26322678 10.3125 23.4375 C10.48386475 24.11127686 10.65522949 24.78505371 10.83178711 25.47924805 C11.68907444 29.05165047 12.19112428 32.32616661 12 36 C11.34 36 10.68 36 10 36 C9.72929687 36.57878906 9.45859375 37.15757812 9.1796875 37.75390625 C4.64146987 46.3945524 -2.9952804 53.53889735 -9.65625 60.57714844 C-10.74824106 61.73342094 -11.82897297 62.90031901 -12.90625 64.0703125 C-18.00510515 69.44410591 -24.01919756 73.66907409 -30 78 C-30 74.10780854 -28.24358051 72.09130888 -26.125 69 C-11.92468289 47.44340638 -4.14480274 25.40944289 0 0 Z " fill="#300F23" transform="translate(316,250)"/>
<path d="M0 0 C-2.3643782 2.3643782 -4.242391 2.91552112 -7.375 4.0625 C-19.82919832 9.17496327 -28.86903761 18.43191707 -38 28 C-35.03 27.34 -32.06 26.68 -29 26 C-32.45195049 32.90390098 -38.79485665 35.77525986 -45.875 38.375 C-51.65689281 40.1734808 -56.98943136 40.42594581 -63 40 C-60.94206375 37.71138063 -60.3451488 37.05368981 -57.1875 36.5625 C-53.17225914 35.85392808 -51.19302129 34.54130064 -48 32 C-46.52863356 29.54679017 -45.30685557 27.26502532 -44.125 24.6875 C-41.06032796 18.44300493 -37.84427146 13.99462172 -32 10 C-33.65 9.34 -35.3 8.68 -37 8 C-27.71558962 -2.99920913 -12.73754265 -4.33978223 0 0 Z " fill="#310F23" transform="translate(221,110)"/>
<path d="M0 0 C0.33 0 0.66 0 1 0 C0.67 2.97 0.34 5.94 0 9 C-0.67240723 9.03963867 -1.34481445 9.07927734 -2.03759766 9.12011719 C-32.8720681 11.01488519 -60.60985963 17.14935995 -89.07495117 29.26318359 C-91.02927186 30.01120386 -92.9615355 30.53489276 -95 31 C-76.74797684 10.31437375 -37.74692329 3.72199581 -11.92089844 1.11889648 C-9.38012955 0.96163232 -6.96053577 1.11767856 -4.4375 1.4375 C-3.59058594 1.53933594 -2.74367188 1.64117187 -1.87109375 1.74609375 C-0.94490234 1.87177734 -0.94490234 1.87177734 0 2 C0 1.34 0 0.68 0 0 Z " fill="#A23F23" transform="translate(171,173)"/>
<path d="M0 0 C0.99 0.99 0.99 0.99 2 2 C0.9577124 1.98428955 -0.0845752 1.9685791 -1.15844727 1.95239258 C-5.10026023 1.89726333 -9.04204073 1.86335482 -12.98413086 1.83520508 C-14.67624682 1.82030433 -16.36832548 1.79997666 -18.06030273 1.77368164 C-47.96563211 1.32124266 -69.8687566 12.2719981 -94.46289062 28.21459961 C-106.89079322 36.24937792 -106.89079322 36.24937792 -113.375 36.6875 C-114.24898437 36.75324219 -115.12296875 36.81898438 -116.0234375 36.88671875 C-116.67570312 36.92410156 -117.32796875 36.96148437 -118 37 C-121.97741972 31.99614939 -122.61397183 28.36946479 -123 22 C-125.31 23.98 -127.62 25.96 -130 28 C-128.63422544 23.71506993 -126.79318655 21.56854295 -123.375 18.6875 C-122.55773437 17.99011719 -121.74046875 17.29273437 -120.8984375 16.57421875 C-119.95871094 15.79498047 -119.95871094 15.79498047 -119 15 C-118.67 15.66 -118.34 16.32 -118 17 C-118.33 17.66 -118.66 18.32 -119 19 C-120.4741321 23.42239631 -119.65399402 27.44855514 -119 32 C-103.50275908 33.7610501 -87.49943207 19.47321071 -75.25 11.5859375 C-51.88057507 -3.24906509 -26.62780405 -8.77980543 0 0 Z " fill="#2E0F22" transform="translate(223,97)"/>
<path d="M0 0 C14.92365676 13.75525659 24.3099191 39.04972098 25.171875 58.97265625 C25.18528698 62.3222984 25.13731803 65.65350876 25 69 C21.44085928 65.7870371 19.28703188 61.75384437 16.81640625 57.69140625 C15.15755496 54.96122141 15.15755496 54.96122141 12.859375 53.2265625 C9.98975595 49.79025397 10.09972541 46.16869808 9.6875 41.8125 C8.31419122 30.00414113 5.14853696 18.88205007 1.70849609 7.52929688 C1.00947947 5.03384126 0.47424099 2.54682855 0 0 Z " fill="#391124" transform="translate(321,182)"/>
<path d="M0 0 C1.60294922 0.3403125 1.60294922 0.3403125 3.23828125 0.6875 C13.82314661 3.19650512 23.66075538 8.55210731 33 14 C31 15 31 15 27.71875 13.92578125 C26.31122737 13.39136065 24.90507123 12.85333285 23.5 12.3125 C14.48004277 8.98971332 5.43248611 6.78942113 -4 5 C-5.14597656 4.773125 -6.29195312 4.54625 -7.47265625 4.3125 C-24.35889004 1.41426679 -41.99025741 2.90006284 -59 4 C-42.7480908 -9.47380506 -18.92860516 -4.34772324 0 0 Z " fill="#A32933" transform="translate(236,64)"/>
<path d="M0 0 C0.495 0.99 0.495 0.99 1 2 C0.09121094 2.22042969 0.09121094 2.22042969 -0.8359375 2.4453125 C-18.19613636 7.09250419 -32.31944635 20.69868798 -41.8125 35.625 C-48.13479312 47.09334566 -49.72787363 59.0600244 -49 72 C-54.20071159 64.19893262 -52.9994143 52.05826011 -51.234375 43.125 C-45.59826814 25.66100691 -32.9901298 13.6021451 -17.9375 3.875 C-17.19371094 3.37653564 -16.44992188 2.87807129 -15.68359375 2.36450195 C-10.41987674 -0.89114872 -6.03946784 -2.01792446 0 0 Z " fill="#EA9154" transform="translate(84,139)"/>
<path d="M0 0 C-1.55705779 15.24522256 -1.55705779 15.24522256 -7 21 C-9.28208274 22.68205237 -11.41026468 23.77842673 -14 25 C-14.66 25.33 -15.32 25.66 -16 26 C-21.95619869 26.40381008 -25.74852609 25.88316215 -31 23 C-33 21.0625 -33 21.0625 -34 19 C-33.6875 16.75 -33.6875 16.75 -33 15 C-32.154375 15.825 -31.30875 16.65 -30.4375 17.5 C-27.80059783 19.69325276 -26.90794348 20.01404252 -23.3125 20.5625 C-19.98794993 20.31052532 -19.98794993 20.31052532 -18.125 18.25 C-17.07184662 16.14369325 -16.41291404 14.31231862 -16 12 C-17.32 11.67 -18.64 11.34 -20 11 C-19.828125 8.671875 -19.828125 8.671875 -19 6 C-16.671875 4.453125 -16.671875 4.453125 -13.75 3.25 C-12.79609375 2.84265625 -11.8421875 2.4353125 -10.859375 2.015625 C-7.15253598 0.69898819 -3.93336462 0 0 0 Z " fill="#C33435" transform="translate(166,116)"/>
<path d="M0 0 C0 0.33 0 0.66 0 1 C-4.08250882 1.67178263 -8.16613117 2.33653942 -12.25 3 C-13.98830078 3.28617188 -13.98830078 3.28617188 -15.76171875 3.578125 C-16.87675781 3.75859375 -17.99179688 3.9390625 -19.140625 4.125 C-20.68024902 4.37636719 -20.68024902 4.37636719 -22.25097656 4.6328125 C-25 5 -25 5 -29 5 C-29 4.01 -29 3.02 -29 2 C-32.3 2 -35.6 2 -39 2 C-39 1.67 -39 1.34 -39 1 C-8.20636222 -5.93941133 -8.20636222 -5.93941133 0 0 Z " fill="#161428" transform="translate(160,174)"/>
<path d="M0 0 C10.83764167 -0.53299877 20.63650355 -0.24233096 30 6 C30 6.99 30 7.98 30 9 C28.45925884 9.08221346 26.91719346 9.13973295 25.375 9.1875 C24.51648438 9.22230469 23.65796875 9.25710937 22.7734375 9.29296875 C20 9 20 9 17.1875 7.53125 C13.2273693 5.62883427 9.95712579 5.44959259 5.625 5.3125 C4.88894531 5.27833984 4.15289062 5.24417969 3.39453125 5.20898438 C1.59686147 5.12727211 -0.20154046 5.06194219 -2 5 C1.00617269 1.99382731 3.82381598 2.40414684 8 2 C5.36 1.67 2.72 1.34 0 1 C0 0.67 0 0.34 0 0 Z " fill="#C9502D" transform="translate(141,166)"/>
<path d="M0 0 C-0.93931839 9.19690844 -2.07726924 16.74250312 -9.3125 23 C-9.869375 23.33 -10.42625 23.66 -11 24 C-11.66 23.67 -12.32 23.34 -13 23 C-12.360625 22.21625 -11.72125 21.4325 -11.0625 20.625 C-8.22756711 17.0169036 -7.87965442 15.38695518 -7.9375 10.875 C-7.94652344 9.96492188 -7.95554688 9.05484375 -7.96484375 8.1171875 C-7.97644531 7.41851562 -7.98804688 6.71984375 -8 6 C-9.65 6 -11.3 6 -13 6 C-13 6.66 -13 7.32 -13 8 C-14.32 7.34 -15.64 6.68 -17 6 C-12.55958637 1.55958637 -6.13962697 0 0 0 Z " fill="#84081F" transform="translate(166,116)"/>
<path d="M0 0 C0.66 0.33 1.32 0.66 2 1 C-6.86110057 13.15460698 -16.54282837 23.45588646 -28.328125 32.83984375 C-39.14085511 41.48315957 -39.14085511 41.48315957 -48 52 C-48.66 52 -49.32 52 -50 52 C-50.1546875 52.928125 -50.1546875 52.928125 -50.3125 53.875 C-51 56 -51 56 -54 58 C-50.63787297 45.3359882 -36.72065636 36.06109555 -27 28 C-16.76558716 19.47983116 -7.55036375 11.08959676 0 0 Z " fill="#56192C" transform="translate(142,274)"/>
<path d="M0 0 C3.10039543 1.75494081 5.48825667 3.48825667 8 6 C8 7.32 8 8.64 8 10 C0.57488991 10.70048208 -4.4509858 8.37081613 -11 5 C-8.51412629 -0.50443464 -5.9335297 -0.49446081 0 0 Z " fill="#131528" transform="translate(87,150)"/>
<path d="M0 0 C1.2684375 1.2375 1.2684375 1.2375 2.5625 2.5 C5.17506025 4.66786914 6.07717717 5.01197577 9.625 5.5625 C13.45663946 4.92389342 14.64637063 4.01264559 17 1 C17.66 1.66 18.32 2.32 19 3 C19.99 3 20.98 3 22 3 C22.33 3.99 22.66 4.98 23 6 C19.51443068 9.48556932 18.04877954 10.86682165 13.0625 11.5 C7.9753058 11.14915902 3.72521958 9.67130647 0 6.0625 C-1 4 -1 4 -0.6875 1.75 C-0.460625 1.1725 -0.23375 0.595 0 0 Z " fill="#C23335" transform="translate(133,131)"/>
<path d="M0 0 C4.22230744 3.97393641 7.6367003 8.2836487 11 13 C11.61875 13.825 12.2375 14.65 12.875 15.5 C14.54237312 19.2052736 14.32696519 21.94563169 14 26 C13.34 26.99 12.68 27.98 12 29 C11.72119995 28.19949219 11.72119995 28.19949219 11.43676758 27.3828125 C10.57198448 24.91824731 9.69235524 22.45922272 8.8125 20 C8.52052734 19.16082031 8.22855469 18.32164062 7.92773438 17.45703125 C6.1066145 12.40489225 3.99214924 8.03350858 0.9597168 3.59375 C0 2 0 2 0 0 Z " fill="#BF5131" transform="translate(341,194)"/>
<path d="M0 0 C4.56116744 1.50774558 7.54613871 4.71913509 10.9765625 7.96484375 C14.4349173 11.20720221 18.11301322 14.16415712 21.8125 17.125 C22.45509766 17.64497559 23.09769531 18.16495117 23.75976562 18.70068359 C24.37271484 19.19004395 24.98566406 19.6794043 25.6171875 20.18359375 C26.16101074 20.61857178 26.70483398 21.0535498 27.26513672 21.50170898 C29.0762367 22.78587141 30.93116923 23.74336042 32.9375 24.6875 C32.9375 25.3475 32.9375 26.0075 32.9375 26.6875 C28.26199645 25.38989329 25.200198 23.62019599 21.5 20.5 C20.07107422 19.29537109 20.07107422 19.29537109 18.61328125 18.06640625 C16.38517542 16.08550632 14.26586708 14.07216596 12.1875 11.9375 C6.59567726 6.21285487 1.84444927 3.21340249 -6.0625 1.6875 C-3.0625 -0.3125 -3.0625 -0.3125 0 0 Z " fill="#C8532E" transform="translate(91.0625,136.3125)"/>
<path d="M0 0 C0.33 0 0.66 0 1 0 C1.16294367 3.91064809 1.0768848 6.72850055 0 10.53125 C-1.38569312 15.83303236 -1.21789897 21.05469105 -1.125 26.5 C-1.11597656 27.51320312 -1.10695312 28.52640625 -1.09765625 29.5703125 C-1.07429007 32.04712801 -1.04153168 34.52343379 -1 37 C-5.82748977 29.75876534 -5.2120543 18.30327868 -3.60302734 9.93554688 C-2.68515793 6.50907461 -1.4465887 3.23545062 0 0 Z " fill="#DC9955" transform="translate(36,174)"/>
<path d="M0 0 C-1.8603799 3.7207598 -6.73824961 4.65039306 -10.4375 6.1875 C-11.32244141 6.56841797 -12.20738281 6.94933594 -13.11914062 7.34179688 C-14.38854492 7.87450195 -14.38854492 7.87450195 -15.68359375 8.41796875 C-16.46275146 8.74563232 -17.24190918 9.0732959 -18.04467773 9.41088867 C-20 10 -20 10 -22 9 C-20.2527456 7.70462174 -18.50208483 6.41383727 -16.75 5.125 C-15.77546875 4.40570313 -14.8009375 3.68640625 -13.796875 2.9453125 C-8.56783105 -0.69164823 -6.40266264 -1.23128128 0 0 Z " fill="#A64224" transform="translate(98,194)"/>
<path d="M0 0 C0.66 0 1.32 0 2 0 C1.68289062 1.24652344 1.36578125 2.49304688 1.0390625 3.77734375 C-0.20124818 9.35874183 -0.44393018 14.86257297 -0.625 20.5625 C-0.66367187 21.57119141 -0.70234375 22.57988281 -0.7421875 23.61914062 C-0.83546203 26.0792564 -0.92125516 28.53938366 -1 31 C-3.80816418 26.78775373 -3.33037619 23.26420394 -3.3125 18.3125 C-3.32861328 17.43916016 -3.34472656 16.56582031 -3.36132812 15.66601562 C-3.36573925 9.75951276 -2.3853909 5.40646644 0 0 Z " fill="#121224" transform="translate(33,177)"/>
<path d="M0 0 C1.17539996 0.92652701 2.34010577 1.86663387 3.5 2.8125 C4.1496875 3.33457031 4.799375 3.85664063 5.46875 4.39453125 C7 6 7 6 7 9 C10.3 9 13.6 9 17 9 C17 9.66 17 10.32 17 11 C11.03814602 11.31378179 7.26441096 10.89026484 2 8 C0 6.0625 0 6.0625 -1 4 C-0.5625 1.87109375 -0.5625 1.87109375 0 0 Z " fill="#BB3235" transform="translate(133,131)"/>
<path d="M0 0 C3.96 0 7.92 0 12 0 C12 0.33 12 0.66 12 1 C9.36 1.33 6.72 1.66 4 2 C7.63 3.32 11.26 4.64 15 6 C15 6.33 15 6.66 15 7 C8.42684522 7.36517527 3.20514474 6.13619737 -3 4 C-2.505 3.525625 -2.01 3.05125 -1.5 2.5625 C0.11542197 1.24076302 0.11542197 1.24076302 0 0 Z " fill="#181527" transform="translate(135,148)"/>
<path d="M0 0 C4.50011378 2.0434502 7.43098008 5.08936287 10.875 8.5625 C11.49906738 9.18785645 12.12313477 9.81321289 12.76611328 10.45751953 C17.14776026 14.9312421 20.94560552 19.50208994 24 25 C20.18334705 23.48870789 18.41088316 21.28483282 15.9375 18.0625 C11.663361 12.66996129 7.0295502 7.90104588 2.08984375 3.1171875 C0 1 0 1 0 0 Z " fill="#C05131" transform="translate(300,64)"/>
<path d="M0 0 C0.33 0.66 0.66 1.32 1 2 C-2.4047086 6.16521052 -5.76517589 9.6567178 -10 13 C-11.37368345 14.63356951 -12.71937515 16.2925002 -14 18 C-14.66 17.67 -15.32 17.34 -16 17 C-11.07037669 10.7178043 -6.2879759 4.95010869 0 0 Z " fill="#D79754" transform="translate(56,150)"/>
<path d="M0 0 C3.52067351 -0.08782542 7.04106144 -0.14066643 10.5625 -0.1875 C11.55314453 -0.21263672 12.54378906 -0.23777344 13.56445312 -0.26367188 C19.50201923 -0.32285027 23.79189947 0.04945745 29 3 C29.33 3.66 29.66 4.32 30 5 C28.38544922 4.69255859 28.38544922 4.69255859 26.73828125 4.37890625 C17.81478181 2.71926862 9.07750629 1.45782206 0 1 C0 0.67 0 0.34 0 0 Z " fill="#231529" transform="translate(135,164)"/>
<path d="M0 0 C2.97 0.33 5.94 0.66 9 1 C8 5 8 5 7 6 C4.66702567 6.04092937 2.33294775 6.04241723 0 6 C-1 3 -1 3 0 0 Z " fill="#DF9857" transform="translate(147,122)"/>
<path d="M0 0 C0.33 0.66 0.66 1.32 1 2 C0.566875 3.0209375 0.566875 3.0209375 0.125 4.0625 C-1.37758566 7.98591812 -1.65525949 11.83589751 -2 16 C-2.33 16 -2.66 16 -3 16 C-3.33 13.03 -3.66 10.06 -4 7 C-6.31 8.98 -8.62 10.96 -11 13 C-9.63422544 8.71506993 -7.79318655 6.56854295 -4.375 3.6875 C-3.55773437 2.99011719 -2.74046875 2.29273437 -1.8984375 1.57421875 C-0.95871094 0.79498047 -0.95871094 0.79498047 0 0 Z " fill="#201126" transform="translate(104,112)"/>
<path d="M0 0 C0.66 0.66 1.32 1.32 2 2 C-3.55313696 1.35588614 -9.01255636 0.49942196 -14.5 -0.5625 C-15.22703125 -0.70107422 -15.9540625 -0.83964844 -16.703125 -0.98242188 C-18.46918037 -1.31936665 -20.23465426 -1.65935683 -22 -2 C-22 -2.33 -22 -2.66 -22 -3 C-14.76193021 -4.84551147 -6.81567261 -2.79617338 0 0 Z " fill="#261829" transform="translate(233,25)"/>
<path d="M0 0 C4.66539191 1.57891849 8.34216741 4.10388467 12.3125 6.9375 C12.95767578 7.38029297 13.60285156 7.82308594 14.26757812 8.27929688 C15.90371764 9.4410425 17.45965282 10.71394559 19 12 C19 12.99 19 13.98 19 15 C16.58011491 13.25431175 14.16408859 11.50367249 11.75 9.75 C11.06808594 9.25886719 10.38617188 8.76773438 9.68359375 8.26171875 C6.1850158 5.71421054 2.95030568 3.19362986 0 0 Z " fill="#BF5031" transform="translate(276,46)"/>
<path d="M0 0 C-0.66 0 -1.32 0 -2 0 C-2 0.66 -2 1.32 -2 2 C-4.35368393 2.48164188 -6.70790155 2.96036648 -9.0625 3.4375 C-9.71927734 3.57220703 -10.37605469 3.70691406 -11.05273438 3.84570312 C-15.35535995 4.71470632 -19.64917124 5.4172492 -24 6 C-20.32798686 3.55199124 -16.76419546 2.55078304 -12.5625 1.3125 C-11.79873047 1.07466797 -11.03496094 0.83683594 -10.24804688 0.59179688 C-9.13719727 0.26211914 -9.13719727 0.26211914 -8.00390625 -0.07421875 C-6.99565796 -0.37718872 -6.99565796 -0.37718872 -5.96704102 -0.6862793 C-3.70038715 -1.04778485 -2.16955474 -0.6917026 0 0 Z " fill="#2A1929" transform="translate(167,43)"/>
<path d="M0 0 C7.34164374 0.59288188 14.67386859 1.238212 22 2 C21.67 2.99 21.34 3.98 21 5 C20.34 5 19.68 5 19 5 C19 4.34 19 3.68 19 3 C17.82244141 3.03480469 17.82244141 3.03480469 16.62109375 3.0703125 C10.65207397 3.17284781 5.62596482 3.04580539 0 1 C0 0.67 0 0.34 0 0 Z " fill="#C35331" transform="translate(71,284)"/>
<path d="M0 0 C-0.85874458 7.51401508 -1.621155 13.7236555 -6 20 C-6.33 19.34 -6.66 18.68 -7 18 C-6.10745308 15.46588436 -5.00485435 13.05833466 -3.91015625 10.60546875 C-2.94575961 7.84472815 -2.67999159 5.89976849 -3 3 C-3.66 2.34 -4.32 1.68 -5 1 C-3 0 -3 0 0 0 Z " fill="#96041E" transform="translate(166,116)"/>
<path d="M0 0 C1.93681161 -0.08107583 3.8745934 -0.13922475 5.8125 -0.1875 C6.89144531 -0.22230469 7.97039062 -0.25710937 9.08203125 -0.29296875 C12 0 12 0 13.88671875 1.51171875 C14.25410156 2.00285156 14.62148437 2.49398437 15 3 C13.06318839 3.08107583 11.1254066 3.13922475 9.1875 3.1875 C8.10855469 3.22230469 7.02960938 3.25710937 5.91796875 3.29296875 C3 3 3 3 1.11328125 1.48828125 C0.56220703 0.75158203 0.56220703 0.75158203 0 0 Z " fill="#080D28" transform="translate(145,172)"/>
<path d="M0 0 C3.59476701 3.49205938 6.92026191 7.04033675 10 11 C10 11.66 10 12.32 10 13 C8.68 13 7.36 13 6 13 C5.18501438 11.3970947 4.37310073 9.79262722 3.5625 8.1875 C3.11003906 7.29417969 2.65757812 6.40085938 2.19140625 5.48046875 C1 3 1 3 0 0 Z " fill="#A54B2F" transform="translate(341,194)"/>
<path d="M0 0 C1.39746302 4.19238905 -0.15968125 6.10701803 -2 10 C-2.33 10.66 -2.66 11.32 -3 12 C-4.32 11.34 -5.64 10.68 -7 10 C-3.535 5.05 -3.535 5.05 0 0 Z " fill="#791C2D" transform="translate(170,131)"/>
<path d="M0 0 C0.99 0.33 1.98 0.66 3 1 C2.46890625 1.45890625 1.9378125 1.9178125 1.390625 2.390625 C-2.18324699 5.49493717 -5.71854059 8.58181312 -9 12 C-8.51113445 7.71872287 -7.38573844 5.90797457 -4.125 3.125 C-3.42632812 2.50882813 -2.72765625 1.89265625 -2.0078125 1.2578125 C-1.34523438 0.84273437 -0.68265625 0.42765625 0 0 Z " fill="#C05132" transform="translate(69,218)"/>
<path d="M0 0 C5.96564796 0.50771472 10.63809899 2.38592128 16 5 C16 5.33 16 5.66 16 6 C13.69 6 11.38 6 9 6 C8.67 5.34 8.34 4.68 8 4 C6.11736119 3.09656316 6.11736119 3.09656316 3.9375 2.375 C3.20402344 2.11460938 2.47054687 1.85421875 1.71484375 1.5859375 C1.14894531 1.39257812 0.58304688 1.19921875 0 1 C0 0.67 0 0.34 0 0 Z " fill="#171028" transform="translate(228,42)"/>
<path d="M0 0 C-2.17186421 2.17186421 -3.49976531 2.6793248 -6.375 3.625 C-7.14585938 3.88539063 -7.91671875 4.14578125 -8.7109375 4.4140625 C-11 5 -11 5 -15 5 C-15 4.34 -15 3.68 -15 3 C-13.44033782 2.491217 -11.87710759 1.99336531 -10.3125 1.5 C-9.44238281 1.2215625 -8.57226562 0.943125 -7.67578125 0.65625 C-5.00608323 0.00149195 -2.73603316 -0.11831495 0 0 Z " fill="#C8512D" transform="translate(112,177)"/>
<path d="M0 0 C5.09210286 3.56320845 9.22660027 7.04741286 13 12 C9.02031425 10.66182195 6.61251238 8.99662286 3.6875 6 C2.99011719 5.29875 2.29273438 4.5975 1.57421875 3.875 C0 2 0 2 0 0 Z " fill="#C05132" transform="translate(33,236)"/>
<path d="M0 0 C0.33 0 0.66 0 1 0 C1.10794277 2.26979665 1.18556176 4.54105196 1.25 6.8125 C1.29640625 8.07707031 1.3428125 9.34164062 1.390625 10.64453125 C1 14 1 14 -1.015625 15.94921875 C-1.67046875 16.29597656 -2.3253125 16.64273438 -3 17 C-2.690625 15.865625 -2.38125 14.73125 -2.0625 13.5625 C-0.93068767 9.07538586 -0.40488706 4.60292653 0 0 Z " fill="#2E1B29" transform="translate(116,224)"/>
<path d="M0 0 C0 4.29 0 8.58 0 13 C-2.02350324 9.96474514 -2.32124018 8.80573798 -2.625 5.3125 C-2.69976562 4.50425781 -2.77453125 3.69601563 -2.8515625 2.86328125 C-2.90054687 2.24839844 -2.94953125 1.63351563 -3 1 C-1 0 -1 0 0 0 Z " fill="#C35531" transform="translate(357,178)"/>
<path d="M0 0 C-1.32 0.33 -2.64 0.66 -4 1 C-4 1.66 -4 2.32 -4 3 C-2.35 3.33 -0.7 3.66 1 4 C-2.81489674 5.46726798 -5.29011622 4.43336419 -9 3 C-5.83583464 -0.30799106 -4.50236011 -1.35070803 0 0 Z " fill="#2A1729" transform="translate(79,280)"/>
<path d="M0 0 C0.33 0 0.66 0 1 0 C1 4.62 1 9.24 1 14 C0.01 13.34 -0.98 12.68 -2 12 C-1.34 8.04 -0.68 4.08 0 0 Z " fill="#C6522E" transform="translate(47,218)"/>
<path d="M0 0 C0 0.99 0 1.98 0 3 C-1.28650706 3.69710731 -2.57940665 4.38242876 -3.875 5.0625 C-4.95394531 5.63677734 -4.95394531 5.63677734 -6.0546875 6.22265625 C-6.69664063 6.47917969 -7.33859375 6.73570312 -8 7 C-8.66 6.67 -9.32 6.34 -10 6 C-8.71283353 4.99421411 -7.42011342 3.99553202 -6.125 3 C-5.40570313 2.443125 -4.68640625 1.88625 -3.9453125 1.3125 C-2 0 -2 0 0 0 Z " fill="#B14829" transform="translate(86,197)"/>
<path d="M0 0 C0.33 0 0.66 0 1 0 C1 2.31 1 4.62 1 7 C-0.98 7.99 -0.98 7.99 -3 9 C-3.33 6.69 -3.66 4.38 -4 2 C-2.515 2.99 -2.515 2.99 -1 4 C-0.67 2.68 -0.34 1.36 0 0 Z " fill="#AF4B30" transform="translate(356,171)"/>
<path d="M0 0 C0.99 0.99 1.98 1.98 3 3 C2.67 3.99 2.34 4.98 2 6 C-0.64 6 -3.28 6 -6 6 C-6.33 5.34 -6.66 4.68 -7 4 C-4.69 4 -2.38 4 0 4 C0 2.68 0 1.36 0 0 Z " fill="#EC7E39" transform="translate(96,157)"/>
<path d="M0 0 C1.98 1.65 3.96 3.3 6 5 C5.34 5.66 4.68 6.32 4 7 C1.875 6.625 1.875 6.625 0 6 C-0.38218767 4.34385343 -0.71395102 2.67542976 -1 1 C-0.67 0.67 -0.34 0.34 0 0 Z " fill="#92051E" transform="translate(133,131)"/>
<path d="M0 0 C0.33 0.66 0.66 1.32 1 2 C-0.65 3.65 -2.3 5.3 -4 7 C-4.66 6.34 -5.32 5.68 -6 5 C-6 3.68 -6 2.36 -6 1 C-5.34 1 -4.68 1 -4 1 C-4 1.66 -4 2.32 -4 3 C-3.01 3 -2.02 3 -1 3 C-0.67 2.01 -0.34 1.02 0 0 Z " fill="#BF4F31" transform="translate(30,158)"/>
<path d="M0 0 C3.68754757 0.49831724 5.60490662 1.10067643 8 4 C7.01 5.485 7.01 5.485 6 7 C4.02 4.69 2.04 2.38 0 0 Z " fill="#161326" transform="translate(271,129)"/>
<path d="M0 0 C0.66 0 1.32 0 2 0 C4 3 4 3 3.625 5.1875 C3.41875 5.785625 3.2125 6.38375 3 7 C2.34 7 1.68 7 1 7 C1 6.34 1 5.68 1 5 C-0.98 5 -2.96 5 -5 5 C-5 4.67 -5 4.34 -5 4 C-3.02 4 -1.04 4 1 4 C0.67 2.68 0.34 1.36 0 0 Z " fill="#9C442F" transform="translate(317,99)"/>
<path d="M0 0 C3.98175544 2.10148204 6.35039045 4.36905358 9 8 C6 8 6 8 4.3125 6.625 C3 5 3 5 3 3 C2.01 2.67 1.02 2.34 0 2 C0 1.34 0 0.68 0 0 Z " fill="#151028" transform="translate(304,88)"/>
<path d="M0 0 C2.3125 0.1875 2.3125 0.1875 5 1 C6.8125 3.5625 6.8125 3.5625 8 6 C7.34 6.66 6.68 7.32 6 8 C5.566875 7.236875 5.13375 6.47375 4.6875 5.6875 C3.26313215 3.41906232 1.96739903 1.7800277 0 0 Z " fill="#D47B39" transform="translate(89,151)"/>
<path d="M0 0 C0 0.66 0 1.32 0 2 C-5.17578125 5.22265625 -5.17578125 5.22265625 -7 6 C-7.99 5.67 -8.98 5.34 -10 5 C-8.71186658 4.16121545 -7.41936744 3.32913217 -6.125 2.5 C-5.40570313 2.0359375 -4.68640625 1.571875 -3.9453125 1.09375 C-2 0 -2 0 0 0 Z " fill="#BE5031" transform="translate(128,54)"/>
<path d="M0 0 C0 0.66 0 1.32 0 2 C-3.96 3.98 -3.96 3.98 -8 6 C-8.33 5.34 -8.66 4.68 -9 4 C-2.25 0 -2.25 0 0 0 Z " fill="#1D1925" transform="translate(70,140)"/>
<path d="M0 0 C6.52307692 0.61538462 6.52307692 0.61538462 8.9375 2.5625 C9.288125 3.036875 9.63875 3.51125 10 4 C6.13304322 4 3.4911548 2.58090029 0 1 C0 0.67 0 0.34 0 0 Z " fill="#C05132" transform="translate(102,211)"/>
<path d="M0 0 C0.66 0.33 1.32 0.66 2 1 C1.01 2.485 1.01 2.485 0 4 C-0.66 4 -1.32 4 -2 4 C-2.66 5.32 -3.32 6.64 -4 8 C-4.33 7.01 -4.66 6.02 -5 5 C-3.35 3.35 -1.7 1.7 0 0 Z " fill="#BF5031" transform="translate(64,77)"/>
</svg>
